<svg width="26" height="26" viewBox="0 0 26 26" fill="none" xmlns="http://www.w3.org/2000/svg">
<circle cx="12.9562" cy="12.7169" r="12.469" stroke="white" stroke-width="0.445322"/>
<path d="M16.7443 6.69589L16.7443 6.69591C16.8318 6.70738 16.9122 6.75032 16.9704 6.8167C17.0286 6.88308 17.0607 6.96836 17.0607 7.05664C17.0607 7.05665 17.0607 7.05667 17.0607 7.05668V9.10216C17.0607 9.19861 17.0224 9.29112 16.9542 9.35932C16.886 9.42752 16.7935 9.46584 16.697 9.46584H15.4863C15.1288 9.46584 14.9463 9.52667 14.8479 9.63597C14.7478 9.74704 14.7171 9.92613 14.7171 10.2155V11.3118H16.6174C16.6174 11.3118 16.6174 11.3118 16.6174 11.3118C16.6692 11.3118 16.7204 11.3229 16.7675 11.3442C16.8147 11.3655 16.8567 11.3967 16.8909 11.4356C16.925 11.4745 16.9505 11.5202 16.9656 11.5698C16.9806 11.6193 16.9849 11.6715 16.9782 11.7228M16.7443 6.69589L16.912 11.7141M16.7443 6.69589L16.7427 6.69571C16.1413 6.63192 15.537 6.60088 14.9322 6.60271M16.7443 6.69589L14.9322 6.60271M16.9782 11.7228L16.912 11.7141M16.9782 11.7228L16.9782 11.7227L16.912 11.7141M16.9782 11.7228L16.6831 14.0087L16.6831 14.0088C16.6716 14.0963 16.6287 14.1767 16.5623 14.2349C16.4959 14.2932 16.4106 14.3252 16.3223 14.3252V14.2584M16.912 11.7141L16.6169 14.0001C16.6075 14.0716 16.5724 14.1372 16.5182 14.1847C16.4641 14.2322 16.3944 14.2584 16.3223 14.2584M16.3223 14.2584L16.3223 14.3252M16.3223 14.2584H14.7171V14.3252M16.3223 14.3252L14.9323 6.66951C12.9355 6.66951 11.6946 7.94135 11.6946 9.98865V11.3118H11.6278M16.3223 14.3252H14.7171M16.3223 14.3252L14.9322 6.60271M14.7171 14.3252H14.6503V18.8422C14.6503 18.921 14.619 18.9965 14.5634 19.0522C14.5077 19.1079 14.4322 19.1391 14.3534 19.1391H11.9914C11.9127 19.1391 11.8372 19.1079 11.7815 19.0522C11.7258 18.9965 11.6946 18.921 11.6946 18.8422V14.3252H11.6278M14.7171 14.3252V18.8422C14.7171 18.9387 14.6788 19.0312 14.6106 19.0994C14.5424 19.1676 14.4499 19.2059 14.3534 19.2059H11.9914C11.895 19.2059 11.8025 19.1676 11.7343 19.0994C11.6661 19.0312 11.6278 18.9387 11.6278 18.8422V14.3252M11.6278 14.3252V14.2584H10.0172C9.93843 14.2584 9.86292 14.2271 9.80725 14.1714C9.75157 14.1158 9.72029 14.0403 9.72029 13.9615V11.6755C9.72029 11.5968 9.75157 11.5213 9.80725 11.4656C9.86292 11.4099 9.93843 11.3786 10.0172 11.3786H11.6278V11.3118M11.6278 14.3252H10.0172C9.92072 14.3252 9.82822 14.2869 9.76001 14.2187C9.69181 14.1505 9.65349 14.058 9.65349 13.9615V11.6755C9.65349 11.5791 9.69181 11.4866 9.76001 11.4184C9.82822 11.3502 9.92072 11.3118 10.0172 11.3118H11.6278M11.6278 11.3118V9.98865C11.6278 8.95148 11.9423 8.10359 12.5168 7.5147C13.0915 6.92563 13.9194 6.60273 14.9322 6.60271M14.3528 12.0398H14.3527C14.2564 12.0396 14.1641 12.0012 14.096 11.933C14.028 11.8648 13.9897 11.7724 13.9897 11.6761V10.2155C13.9897 9.90999 14.0266 9.53944 14.2364 9.24473C14.4496 8.94537 14.8305 8.73849 15.4857 8.73848L14.3528 12.0398ZM14.3528 12.0398H16.2042L16.0024 13.5984H14.3534C14.257 13.5984 14.1645 13.6367 14.0963 13.7049C14.0281 13.7732 13.9897 13.8657 13.9897 13.9621V18.478H12.3551V13.9621C12.3551 13.8657 12.3168 13.7732 12.2486 13.7049C12.1804 13.6367 12.0879 13.5984 11.9914 13.5984H10.3814V12.0398H11.9914C12.0879 12.0398 12.1804 12.0015 12.2486 11.9333C12.3168 11.8651 12.3551 11.7726 12.3551 11.6761V9.98865C12.3551 9.14816 12.5984 8.48516 13.0375 8.03255C13.4764 7.58019 14.1185 7.33007 14.9323 7.33007C15.4934 7.33007 16.0033 7.35883 16.3333 7.38583V8.73793L15.4857 8.73848L14.3528 12.0398ZM14.7171 11.3786H14.6503V11.3118L14.7171 11.3786Z" fill="white" stroke="white" stroke-width="0.133597"/>
</svg>
