<?xml version="1.0" encoding="utf-8"?>
<!-- Generator: Adobe Illustrator 27.8.1, SVG Export Plug-In . SVG Version: 6.00 Build 0)  -->
<svg version="1.1" id="Layer_1" xmlns="http://www.w3.org/2000/svg" xmlns:xlink="http://www.w3.org/1999/xlink" x="0px" y="0px"
	 viewBox="0 0 32 32" style="enable-background:new 0 0 32 32;" xml:space="preserve">
<style type="text/css">
	.st0{fill:#FFFFFF;}
</style>
<path class="st0" d="M16,0.7C7.5,0.7,0.5,7.6,0.5,16.1s7,15.4,15.5,15.4s15.5-6.9,15.5-15.4S24.6,0.7,16,0.7z M16,1.2
	c8.3,0,15,6.6,15,14.9c0,7.4-5.4,13.6-12.8,14.7V20.4h4.3l0.7-4.3h-4.9v-2.4c0-1.8,0.6-3.4,2.3-3.4h2.7V6.6
	c-0.5-0.1-1.5-0.2-3.4-0.2c-4,0-6.3,2.1-6.3,6.8v2.9H9.5v4.3h4.1v10.3C6.3,29.5,1,23.3,1,16.1C1,7.8,7.7,1.2,16,1.2z"/>
</svg>
