<svg width="27" height="26" viewBox="0 0 27 26" fill="none" xmlns="http://www.w3.org/2000/svg">
<circle cx="13.5097" cy="12.7169" r="12.469" stroke="white" stroke-width="0.445322"/>
<path d="M10.7931 7.00195H15.7807C17.6807 7.00195 19.2245 8.54574 19.2245 10.4458V15.4334C19.2245 16.3468 18.8617 17.2227 18.2159 17.8685C17.57 18.5144 16.6941 18.8772 15.7807 18.8772H10.7931C8.89305 18.8772 7.34927 17.3334 7.34927 15.4334V10.4458C7.34927 9.53242 7.7121 8.65647 8.35794 8.01063C9.00378 7.36478 9.87973 7.00195 10.7931 7.00195ZM10.6743 8.18948C10.1074 8.18948 9.56373 8.41468 9.16287 8.81555C8.762 9.21642 8.53679 9.76011 8.53679 10.327V15.5521C8.53679 16.7337 9.49275 17.6897 10.6743 17.6897H15.8995C16.4664 17.6897 17.0101 17.4645 17.4109 17.0636C17.8118 16.6627 18.037 16.1191 18.037 15.5521V10.327C18.037 9.14544 17.081 8.18948 15.8995 8.18948H10.6743ZM16.4042 9.08012C16.601 9.08012 16.7898 9.15832 16.929 9.29751C17.0682 9.4367 17.1464 9.62548 17.1464 9.82233C17.1464 10.0192 17.0682 10.208 16.929 10.3471C16.7898 10.4863 16.601 10.5645 16.4042 10.5645C16.2073 10.5645 16.0185 10.4863 15.8793 10.3471C15.7401 10.208 15.662 10.0192 15.662 9.82233C15.662 9.62548 15.7401 9.4367 15.8793 9.29751C16.0185 9.15832 16.2073 9.08012 16.4042 9.08012ZM13.2869 9.97077C14.0743 9.97077 14.8294 10.2836 15.3862 10.8403C15.9429 11.3971 16.2557 12.1522 16.2557 12.9396C16.2557 13.727 15.9429 14.4821 15.3862 15.0389C14.8294 15.5956 14.0743 15.9084 13.2869 15.9084C12.4995 15.9084 11.7444 15.5956 11.1876 15.0389C10.6309 14.4821 10.3181 13.727 10.3181 12.9396C10.3181 12.1522 10.6309 11.3971 11.1876 10.8403C11.7444 10.2836 12.4995 9.97077 13.2869 9.97077ZM13.2869 11.1583C12.8145 11.1583 12.3614 11.346 12.0273 11.68C11.6933 12.0141 11.5056 12.4672 11.5056 12.9396C11.5056 13.412 11.6933 13.8651 12.0273 14.1991C12.3614 14.5332 12.8145 14.7209 13.2869 14.7209C13.7593 14.7209 14.2124 14.5332 14.5465 14.1991C14.8805 13.8651 15.0682 13.412 15.0682 12.9396C15.0682 12.4672 14.8805 12.0141 14.5465 11.68C14.2124 11.346 13.7593 11.1583 13.2869 11.1583Z" fill="white"/>
</svg>
