<svg width="27" height="26" viewBox="0 0 27 26" fill="none" xmlns="http://www.w3.org/2000/svg">
<circle cx="13.4028" cy="12.7169" r="12.469" stroke="white" stroke-width="0.445322"/>
<path d="M20.0083 8.19537C19.4145 8.48631 18.8326 8.60447 18.227 8.78319C17.5614 8.03208 16.5745 7.99052 15.6263 8.34559C14.6781 8.70066 14.057 9.56874 14.0706 10.5645V11.1582C12.1439 11.2075 10.4279 10.3299 9.32053 8.78319C9.32053 8.78319 6.83741 13.1966 11.6956 15.3146C10.5841 16.055 9.4755 16.5544 8.133 16.5021C10.0972 17.5727 12.2377 17.9408 14.0908 17.4029C16.2165 16.7853 17.9633 15.1923 18.6337 12.8059C18.8337 12.0802 18.933 11.3304 18.9288 10.5775C18.9276 10.4297 19.8254 8.93164 20.0083 8.19478V8.19537Z" stroke="white" stroke-width="0.890645" stroke-linecap="round" stroke-linejoin="round"/>
</svg>
