<svg width="12" height="12" viewBox="0 0 12 12" fill="none" xmlns="http://www.w3.org/2000/svg">
<path d="M4.52528 6.64984C4.39911 6.64984 4.29327 6.60709 4.20777 6.52158C4.12256 6.43638 4.07996 6.33069 4.07996 6.20452C4.07996 6.07834 4.12256 5.9725 4.20777 5.887C4.29327 5.8018 4.39911 5.75919 4.52528 5.75919C4.65145 5.75919 4.75729 5.8018 4.84279 5.887C4.928 5.9725 4.9706 6.07834 4.9706 6.20452C4.9706 6.33069 4.928 6.43638 4.84279 6.52158C4.75729 6.60709 4.65145 6.64984 4.52528 6.64984ZM6.30657 6.64984C6.18039 6.64984 6.0747 6.60709 5.9895 6.52158C5.904 6.43638 5.86125 6.33069 5.86125 6.20452C5.86125 6.07834 5.904 5.9725 5.9895 5.887C6.0747 5.8018 6.18039 5.75919 6.30657 5.75919C6.43274 5.75919 6.53858 5.8018 6.62408 5.887C6.70929 5.9725 6.75189 6.07834 6.75189 6.20452C6.75189 6.33069 6.70929 6.43638 6.62408 6.52158C6.53858 6.60709 6.43274 6.64984 6.30657 6.64984ZM8.08786 6.64984C7.96168 6.64984 7.85599 6.60709 7.77079 6.52158C7.68529 6.43638 7.64254 6.33069 7.64254 6.20452C7.64254 6.07834 7.68529 5.9725 7.77079 5.887C7.85599 5.8018 7.96168 5.75919 8.08786 5.75919C8.21403 5.75919 8.31972 5.8018 8.40493 5.887C8.49043 5.9725 8.53318 6.07834 8.53318 6.20452C8.53318 6.33069 8.49043 6.43638 8.40493 6.52158C8.31972 6.60709 8.21403 6.64984 8.08786 6.64984ZM3.18931 10.2124C2.94439 10.2124 2.73464 10.1253 2.56007 9.95101C2.3858 9.77645 2.29867 9.5667 2.29867 9.32177V3.08726C2.29867 2.84233 2.3858 2.63273 2.56007 2.45846C2.73464 2.2839 2.94439 2.19661 3.18931 2.19661H3.63464V1.30597H4.52528V2.19661H8.08786V1.30597H8.9785V2.19661H9.42383C9.66875 2.19661 9.8785 2.2839 10.0531 2.45846C10.2273 2.63273 10.3145 2.84233 10.3145 3.08726V9.32177C10.3145 9.5667 10.2273 9.77645 10.0531 9.95101C9.8785 10.1253 9.66875 10.2124 9.42383 10.2124H3.18931ZM3.18931 9.32177H9.42383V4.86855H3.18931V9.32177ZM3.18931 3.9779H9.42383V3.08726H3.18931V3.9779Z" fill="#121212" fill-opacity="0.8"/>
</svg>
