<svg width="11" height="11" viewBox="0 0 11 11" fill="none" xmlns="http://www.w3.org/2000/svg">
<path d="M4.55039 4.30532V6.6878C4.55039 6.86592 4.62832 6.99581 4.78418 7.07745C4.94005 7.1591 5.0922 7.15167 5.24064 7.05519L7.08873 5.87508C7.22975 5.79344 7.30026 5.66727 7.30026 5.49656C7.30026 5.32585 7.22975 5.19968 7.08873 5.11803L5.24064 3.93793C5.0922 3.84144 4.94005 3.83402 4.78418 3.91566C4.62832 3.99731 4.55039 4.12719 4.55039 4.30532ZM5.6637 9.94978C5.04767 9.94978 4.46875 9.83281 3.92694 9.59887C3.38513 9.36522 2.91383 9.04801 2.51304 8.64721C2.11225 8.24642 1.79503 7.77512 1.56139 7.23332C1.32744 6.69151 1.21047 6.11259 1.21047 5.49656C1.21047 4.88053 1.32744 4.30161 1.56139 3.7598C1.79503 3.21799 2.11225 2.74669 2.51304 2.3459C2.91383 1.94511 3.38513 1.62775 3.92694 1.3938C4.46875 1.16016 5.04767 1.04333 5.6637 1.04333C6.27973 1.04333 6.85864 1.16016 7.40045 1.3938C7.94226 1.62775 8.41356 1.94511 8.81435 2.3459C9.21514 2.74669 9.53236 3.21799 9.76601 3.7598C9.99995 4.30161 10.1169 4.88053 10.1169 5.49656C10.1169 6.11259 9.99995 6.69151 9.76601 7.23332C9.53236 7.77512 9.21514 8.24642 8.81435 8.64721C8.41356 9.04801 7.94226 9.36522 7.40045 9.59887C6.85864 9.83281 6.27973 9.94978 5.6637 9.94978ZM5.6637 9.05914C6.65083 9.05914 7.49145 8.71223 8.18556 8.01842C8.87937 7.32431 9.22627 6.48369 9.22627 5.49656C9.22627 4.50943 8.87937 3.66881 8.18556 2.9747C7.49145 2.28089 6.65083 1.93398 5.6637 1.93398C4.67656 1.93398 3.83609 2.28089 3.14228 2.9747C2.44817 3.66881 2.10112 4.50943 2.10112 5.49656C2.10112 6.48369 2.44817 7.32431 3.14228 8.01842C3.83609 8.71223 4.67656 9.05914 5.6637 9.05914Z" fill="white"/>
</svg>
